<svg xmlns="http://www.w3.org/2000/svg" viewBox="0 0 247.94 81"><defs><style>.cls-1{fill:#595c4e;}</style></defs><title>アセット 3</title><g id="レイヤー_2" data-name="レイヤー 2"><g id="レイヤー_1-2" data-name="レイヤー 1"><path class="cls-1" d="M125.88,21.68h-.95V40.74h1c2,0,3.39-2,3.39-9.84C129.33,23.64,128.11,21.68,125.88,21.68Z"/><path class="cls-1" d="M156.68,29c0-6.65-1.42-7.26-3.32-7.26h-1.42V36.33h1.42C155.53,36.33,156.68,35.11,156.68,29Z"/><polygon class="cls-1" points="61.33 52.06 65.07 52.06 63.44 31.31 61.33 52.06"/><path class="cls-1" d="M152.75,43.45h-.81V59.39h1.56c2.44,0,3.53-1.9,3.53-7.6C157,45.21,155,43.45,152.75,43.45Z"/><path class="cls-1" d="M245.15,0H2.8A2.81,2.81,0,0,0,0,2.8V78.2A2.81,2.81,0,0,0,2.8,81H245.15a2.8,2.8,0,0,0,2.79-2.8V2.8A2.8,2.8,0,0,0,245.15,0ZM50.26,32.13H41.31V23.37c0-2-1.15-2.85-2.24-2.85-1.36,0-2.31.82-2.31,2.85V57.56c0,2,.88,2.85,2.37,2.85s2.18-.82,2.18-2.78V48.48h8.95v7.38c0,8.55-5.09,11.53-11.13,11.53S27.74,64.21,27.74,55.86V25.14c0-8.48,5.29-11.53,11.39-11.53s11.13,3,11.13,11.53ZM66.62,66.58,66,59.32H60.59l-.68,7.26H52.38L59.1,14.49h9.69l6.93,52.09Zm43.29.14h-8.68V42.3L97.37,66.72H91.8L87.73,42.3V66.72H80.27V14.49H90.72l4.14,30.72,4.88-30.72h10.17Zm17-18.79h-2V66.58h-9V14.49h10.71c7.73,0,11.53,4.14,11.53,16.48C138.15,44,133.34,47.93,127,47.93Zm27.35,18.65h-11.4V14.49h11.47c6.51,0,10.79,3.8,10.79,13.29,0,5.84-1.43,10-4.48,12,3.25,1.69,5.08,5.69,5.08,12.61C165.77,61.76,161.84,66.58,154.31,66.58Zm38.41-10.11c0,7.26-4.48,10.92-11.12,10.92-6.86,0-11.06-3.66-11.06-10.85v-42h9V57.42c0,2,1,3,2.58,3s2-1,2-3V14.49h8.62ZM220.2,66.58h-2.44l-1.36-2.24c-1.9,2.17-4.27,3-8.47,3-6.11,0-10-3.46-10-10.44V25.2c0-7.73,4.34-11.59,11.05-11.59,6.18,0,10,3.85,10,11.66v6.86h-7l.09-8.09c0-2.45-.54-3.52-2.57-3.52s-2.58,1.09-2.58,3.46V57.63c0,2,.74,3,2.51,3,1.42,0,2.17-1,2.17-3v-16h8.61Z"/></g></g></svg>