<svg xmlns="http://www.w3.org/2000/svg" viewBox="0 0 192.46 53.79"><defs><style>.cls-1{fill:#595c4e;}</style></defs><title>アセット 1</title><g id="レイヤー_2" data-name="レイヤー 2"><g id="レイヤー_1-2" data-name="レイヤー 1"><path class="cls-1" d="M48,53H38.88l-.68-7.25H32.85L32.17,53H24.64L31.36.88h9.69ZM37.33,38.46,35.7,17.7,33.59,38.46Z"/><path class="cls-1" d="M82.17,53.11H73.49V28.69L69.63,53.11H64.06L60,28.69V53.11H52.53V.88H63l4.14,30.73L72,.88H82.17Z"/><path class="cls-1" d="M99.22,34.32h-2V53h-9V.88H98.88c7.73,0,11.53,4.14,11.53,16.48C110.41,30.39,105.6,34.32,99.22,34.32ZM98.13,8.07h-.95V27.13h1c2,0,3.39-2,3.39-9.83C101.59,10,100.37,8.07,98.13,8.07Z"/><path class="cls-1" d="M126.57,53h-11.4V.88h11.47c6.51,0,10.79,3.8,10.79,13.3,0,5.83-1.43,10-4.48,12,3.25,1.7,5.08,5.7,5.08,12.62C138,48.16,134.1,53,126.57,53Zm-.95-44.83H124.2V22.72h1.42c2.17,0,3.32-1.22,3.32-7.32C128.94,8.75,127.52,8.14,125.62,8.14ZM125,29.84h-.81v16h1.56c2.44,0,3.52-1.9,3.52-7.6C129.28,31.61,127.25,29.84,125,29.84Z"/><path class="cls-1" d="M165,42.87c0,7.26-4.48,10.92-11.12,10.92-6.86,0-11.06-3.66-11.06-10.85V.88h8.95V43.82c0,2,1,3,2.58,3s2-1,2-3V.88H165Z"/><path class="cls-1" d="M192.46,53H190l-1.36-2.23c-1.9,2.17-4.27,3-8.47,3-6.11,0-10-3.46-10-10.45V11.6c0-7.73,4.34-11.6,11-11.6,6.18,0,10,3.86,10,11.67v6.85h-7l.09-8.09c0-2.45-.54-3.51-2.57-3.51s-2.58,1.08-2.58,3.46V44c0,2,.74,3,2.51,3,1.42,0,2.17-1,2.17-3V28h8.61Z"/><path class="cls-1" d="M13.56,18.52V9.77c0-2-1.14-2.85-2.23-2.85C10,6.92,9,7.73,9,9.77V44c0,2,.88,2.85,2.37,2.85S13.56,46,13.56,44V34.88h9v7.38c0,8.54-5.09,11.53-11.13,11.53S0,50.6,0,42.26V11.53C0,3.05,5.29,0,11.39,0S22.52,3,22.52,11.53v7Z"/></g></g></svg>